HIERARCHY
ROOT joint_Root
{
	OFFSET 0.0 0.0 0.0
	CHANNELS 6 Xposition Yposition Zposition Zrotation Xrotation Yrotation 
	JOINT Hips
	{
		OFFSET -0.726466 93.3139 -2.00062
		CHANNELS 6 Xposition Yposition Zposition Zrotation Xrotation Yrotation 
		JOINT Spine
		{
			OFFSET 15.7357 0.0 0.0
			CHANNELS 6 Xposition Yposition Zposition Zrotation Xrotation Yrotation 
			JOINT Chest
			{
				OFFSET 8.98455 -0.406207 0.0
				CHANNELS 6 Xposition Yposition Zposition Zrotation Xrotation Yrotation 
				JOINT Neck
				{
					OFFSET 16.3773 0.0 0.0
					CHANNELS 6 Xposition Yposition Zposition Zrotation Xrotation Yrotation 
					JOINT Head
					{
						OFFSET 6.45672 0.0 0.0
						CHANNELS 6 Xposition Yposition Zposition Zrotation Xrotation Yrotation 
						End Site
						{
							OFFSET 0.0 0.0 0.0
						}
					}
				}
				JOINT Shoulder_L
				{
					OFFSET 12.9942 -0.242716 4.98039
					CHANNELS 6 Xposition Yposition Zposition Zrotation Xrotation Yrotation 
					JOINT UpperArm_L
					{
						OFFSET 5.34809 0.0 0.0
						CHANNELS 6 Xposition Yposition Zposition Zrotation Xrotation Yrotation 
						JOINT LowerArm_L
						{
							OFFSET 24.3286 1.87007e-05 0.0
							CHANNELS 6 Xposition Yposition Zposition Zrotation Xrotation Yrotation 
							JOINT Hand_L
							{
								OFFSET 22.2916 0.0 0.0
								CHANNELS 6 Xposition Yposition Zposition Zrotation Xrotation Yrotation 
								End Site
								{
									OFFSET 0.0 0.0 0.0
								}
							}
						}
					}
				}
				JOINT Shoulder_R
				{
					OFFSET 12.9945 -0.242716 -4.98039
					CHANNELS 6 Xposition Yposition Zposition Zrotation Xrotation Yrotation 
					JOINT UpperArm_R
					{
						OFFSET -5.34813 0.0 0.0
						CHANNELS 6 Xposition Yposition Zposition Zrotation Xrotation Yrotation 
						JOINT LowerArm_R
						{
							OFFSET -24.3289 0.000322201 0.0
							CHANNELS 6 Xposition Yposition Zposition Zrotation Xrotation Yrotation 
							JOINT Hand_R
							{
								OFFSET -22.2915 -0.000108084 0.0
								CHANNELS 6 Xposition Yposition Zposition Zrotation Xrotation Yrotation 
								End Site
								{
									OFFSET 0.0 0.0 0.0
								}
							}
						}
					}
				}
			}
		}
		JOINT UpperLeg_L
		{
			OFFSET -2.19248 -6.46944 0.0
			CHANNELS 6 Xposition Yposition Zposition Zrotation Xrotation Yrotation 
			JOINT LowerLeg_L
			{
				OFFSET 39.0811 0.0 -1.23785e-05
				CHANNELS 6 Xposition Yposition Zposition Zrotation Xrotation Yrotation 
				JOINT Foot_L
				{
					OFFSET 40.9854 0.0 -1.26872e-05
					CHANNELS 6 Xposition Yposition Zposition Zrotation Xrotation Yrotation 
					JOINT Toes_L
					{
						OFFSET 11.7543 0.0 0.0
						CHANNELS 6 Xposition Yposition Zposition Zrotation Xrotation Yrotation 
						End Site
						{
							OFFSET 0.0 0.0 0.0
						}
					}
				}
			}
		}
		JOINT UpperLeg_R
		{
			OFFSET -2.19251 6.46944 0.0
			CHANNELS 6 Xposition Yposition Zposition Zrotation Xrotation Yrotation 
			JOINT LowerLeg_R
			{
				OFFSET -39.0811 -0.00228153 -0.0401928
				CHANNELS 6 Xposition Yposition Zposition Zrotation Xrotation Yrotation 
				JOINT Foot_R
				{
					OFFSET -40.9854 0.0 0.0
					CHANNELS 6 Xposition Yposition Zposition Zrotation Xrotation Yrotation 
					JOINT Toes_R
					{
						OFFSET -11.7543 0.0 0.0
						CHANNELS 6 Xposition Yposition Zposition Zrotation Xrotation Yrotation 
						End Site
						{
							OFFSET 0.0 0.0 0.0
						}
					}
				}
			}
		}
	}
}
MOTION
Frames:	4
Frame Time:	0.0333333
0.000000 0.000000 0.000000 0.000000 0.000000 -0.000000 -0.463243 92.401500 -1.880210 87.612700 -1.870040 1.324630 15.735700 0.000005 -0.000001 92.074200 86.539100 -92.765600 8.984550 -0.406207 -0.000000 -0.846645 0.302423 -1.380020 16.377300 -0.000001 -0.000001 -0.403090 -2.408840 2.625870 6.456720 -0.000001 -0.000000 -3.500080 -0.610574 -8.540020 12.994200 -0.242716 4.980390 -88.539200 -4.343140 -71.389500 5.348090 -0.000007 -0.000001 0.374463 78.253700 -48.529500 24.328600 0.000019 0.000005 15.768600 0.928438 -86.715900 22.291600 -0.000001 0.000005 41.903700 5.580190 -32.019000 12.994500 -0.242716 -4.980390 92.004000 -4.080890 -63.817500 -5.348130 -0.000001 -0.000004 -67.974200 -56.605500 -112.454000 -24.328900 0.000322 -0.000009 3.457540 3.253960 -46.797300 -22.291500 -0.000108 -0.000004 27.500600 5.414400 -3.411360 -2.192480 -6.469440 -0.000000 -170.036000 -15.602800 -3.513360 39.081100 -0.000007 -0.000012 -0.145524 0.407745 19.641600 40.985400 -0.000006 -0.000013 -5.430300 3.120090 -63.151300 11.754300 -0.000000 0.000003 -0.000042 -0.000482 -16.596300 -2.192510 6.469440 -0.000001 175.719000 19.076700 177.256000 -39.081100 -0.002282 -0.040193 0.038339 -0.105926 18.291900 -40.985400 0.000008 0.000006 -0.188160 2.426680 -62.119400 -11.754300 -0.000006 -0.000006 -0.007392 -0.082994 -19.952100
0.000000 0.000000 0.000000 0.000000 0.000000 -0.000000 -0.507984 92.393400 -1.857690 87.588500 -1.884390 1.291230 15.735700 0.000005 -0.000001 92.127000 86.542700 -92.815900 8.984550 -0.406207 -0.000000 -0.853975 0.308381 -1.374910 16.377300 -0.000001 -0.000001 -0.387091 -2.397340 2.631320 6.456720 -0.000001 -0.000000 -3.512640 -0.578663 -8.569730 12.994200 -0.242716 4.980390 -88.547700 -4.312300 -71.367600 5.348090 -0.000007 -0.000001 0.185003 78.257700 -48.347700 24.328600 0.000019 0.000005 15.770400 0.940647 -86.673200 22.291600 -0.000001 0.000005 41.922000 5.579840 -32.037500 12.994500 -0.242716 -4.980390 92.005200 -4.081630 -63.807800 -5.348130 -0.000001 -0.000004 -67.791900 -56.636500 -112.391000 -24.328900 0.000322 -0.000009 3.431900 3.225100 -46.838400 -22.291500 -0.000108 -0.000004 27.548700 5.415440 -3.445930 -2.192480 -6.469440 -0.000000 -169.993000 -15.543400 -3.547200 39.081100 -0.000007 -0.000012 -0.145179 0.405949 19.678700 40.985400 -0.000006 -0.000013 -5.473960 3.061970 -63.184900 11.754300 -0.000000 0.000003 -0.000045 -0.000517 -16.597700 -2.192510 6.469440 -0.000001 175.776000 19.087100 177.233000 -39.081100 -0.002282 -0.040193 0.038205 -0.105406 18.310300 -40.985400 0.000008 0.000006 -0.183063 2.444190 -62.180000 -11.754300 -0.000006 -0.000006 -0.007460 -0.083569 -19.975600
0.000000 0.000000 0.000000 0.000000 0.000000 -0.000000 -0.546502 92.395700 -1.836700 87.546600 -1.888010 1.254750 15.735700 0.000005 -0.000001 92.153100 86.546100 -92.841600 8.984550 -0.406207 -0.000000 -0.860923 0.311289 -1.374090 16.377300 -0.000001 -0.000001 -0.344647 -2.383130 2.657110 6.456720 -0.000001 -0.000000 -3.526130 -0.529410 -8.533970 12.994200 -0.242716 4.980390 -88.544800 -4.315860 -71.346700 5.348090 -0.000007 -0.000001 -0.171273 78.228600 -47.996000 24.328600 0.000019 0.000005 15.826700 0.943283 -86.676300 22.291600 -0.000001 0.000005 41.873200 5.580420 -32.006800 12.994500 -0.242716 -4.980390 92.013900 -4.097260 -63.796300 -5.348130 -0.000001 -0.000004 -67.628000 -56.655300 -112.228000 -24.328900 0.000322 -0.000009 3.450050 3.222880 -47.009100 -22.291500 -0.000108 -0.000004 27.581200 5.415650 -3.453300 -2.192480 -6.469440 -0.000000 -169.933000 -15.527500 -3.562230 39.081100 -0.000007 -0.000012 -0.145515 0.407372 19.657100 40.985400 -0.000006 -0.000013 -5.513490 3.012810 -63.177400 11.754300 -0.000000 0.000003 -0.000040 -0.000466 -16.595700 -2.192510 6.469440 -0.000001 175.857000 19.138900 177.197000 -39.081100 -0.002282 -0.040193 0.037704 -0.103780 18.328800 -40.985400 0.000008 0.000006 -0.184690 2.458790 -62.158500 -11.754300 -0.000006 -0.000006 -0.007359 -0.082718 -19.940800
0.000000 0.000000 0.000000 0.000000 0.000000 -0.000000 -0.585087 92.392100 -1.811200 87.538300 -1.904700 1.249910 15.735700 0.000005 -0.000001 92.301100 86.535500 -92.993400 8.984550 -0.406207 -0.000000 -0.840296 0.330124 -1.381480 16.377300 -0.000001 -0.000001 -0.275452 -2.375020 2.678250 6.456720 -0.000001 -0.000000 -3.585440 -0.530369 -8.505420 12.994200 -0.242716 4.980390 -88.535900 -4.332130 -71.306300 5.348090 -0.000007 -0.000001 -0.300683 78.193400 -47.907200 24.328600 0.000019 0.000005 15.884600 0.940338 -86.699400 22.291600 -0.000001 0.000005 41.863600 5.582660 -31.885200 12.994500 -0.242716 -4.980390 92.022100 -4.110340 -63.775600 -5.348130 -0.000001 -0.000004 -67.442600 -56.688200 -112.016000 -24.328900 0.000322 -0.000009 3.406310 3.149890 -47.297700 -22.291500 -0.000108 -0.000004 27.471600 5.413600 -3.384820 -2.192480 -6.469440 -0.000000 -169.888000 -15.534400 -3.525130 39.081100 -0.000007 -0.000012 -0.146165 0.409745 19.632500 40.985400 -0.000006 -0.000013 -5.542010 3.047470 -63.183200 11.754300 -0.000000 0.000003 -0.000034 -0.000404 -16.593300 -2.192510 6.469440 -0.000001 175.878000 19.168500 177.225000 -39.081100 -0.002282 -0.040193 0.038139 -0.105213 18.309000 -40.985400 0.000008 0.000006 -0.109213 2.504560 -62.219000 -11.754300 -0.000006 -0.000006 -0.007045 -0.080047 -19.831800
